<svg width="147" height="59" viewBox="0 0 147 59" fill="none" xmlns="http://www.w3.org/2000/svg">
<path d="M57.8606 0.485748V39.9528C57.8606 40.2211 57.6432 40.4385 57.3749 40.4385H49.6029C49.3345 40.4385 49.1171 40.2211 49.1171 39.9528V9.21828C49.1171 8.94991 48.8986 8.73132 48.6302 8.73253L43.5335 8.74225C43.1327 8.74225 42.9032 8.28564 43.1437 7.96505L48.9702 0.194299C49.0625 0.0716478 49.2058 0 49.3588 0H57.3736C57.642 0 57.8594 0.217372 57.8594 0.485748H57.8606Z" fill="white"/>
<path d="M75.9556 0.485748V39.9528C75.9556 40.2211 75.7382 40.4385 75.4698 40.4385H67.6979C67.4295 40.4385 67.2121 40.2211 67.2121 39.9528V9.21828C67.2121 8.94991 66.9935 8.73132 66.7251 8.73253L61.6284 8.74225C61.2277 8.74225 60.9982 8.28564 61.2386 7.96505L67.0652 0.194299C67.1575 0.0716478 67.3008 0 67.4538 0H75.4686C75.737 0 75.9544 0.217372 75.9544 0.485748H75.9556Z" fill="white"/>
<path d="M47.4176 10.9284V39.9494C47.4176 40.4169 46.8226 40.6149 46.5421 40.2396L43.1418 35.6869C43.0787 35.6032 43.0447 35.5011 43.0447 35.3967V10.9284C43.0447 10.66 43.262 10.4426 43.5304 10.4426H46.9307C47.199 10.4426 47.4164 10.66 47.4164 10.9284H47.4176Z" fill="white"/>
<path d="M65.5121 10.9291L65.5084 39.9513C65.5084 40.4189 64.9134 40.6168 64.6329 40.2428L61.2326 35.6913C61.1695 35.6075 61.1355 35.5055 61.1355 35.3999L61.1391 10.9279C61.1391 10.6595 61.3565 10.4421 61.6249 10.4421H65.0251C65.2935 10.4421 65.5109 10.6595 65.5109 10.9279L65.5121 10.9291Z" fill="white"/>
<path d="M20.3259 0C9.1586 0 0.106689 9.05191 0.106689 20.2193C0.106689 31.3866 9.1586 40.4385 20.3259 40.4385C31.4933 40.4385 40.5452 31.3866 40.5452 20.2193C40.5452 9.05191 31.4933 0 20.3259 0ZM20.3259 31.7558C13.9541 31.7558 8.78943 26.5911 8.78943 20.2193C8.78943 13.8475 13.9541 8.68274 20.3259 8.68274C26.6977 8.68274 31.8625 13.8475 31.8625 20.2193C31.8625 26.5911 26.6977 31.7558 20.3259 31.7558Z" fill="white"/>
<path d="M111.111 8.88676L91.0386 30.8596C90.746 31.1802 90.973 31.6951 91.4078 31.6951H110.743C111.019 31.6951 111.242 31.9185 111.242 32.1942V39.9394C111.242 40.2151 111.019 40.4385 110.743 40.4385H78.9532C78.6776 40.4385 78.4541 40.2151 78.4541 39.9394V31.8894C78.4541 31.7643 78.5002 31.644 78.5853 31.553L98.6576 9.58016C98.9502 9.25957 98.7232 8.74468 98.2884 8.74468H78.9532C78.6776 8.74468 78.4541 8.52123 78.4541 8.24557V0.499106C78.4541 0.223444 78.6776 0 78.9532 0H110.743C111.019 0 111.242 0.223444 111.242 0.499106V8.54916C111.242 8.67424 111.196 8.79447 111.111 8.88554V8.88676Z" fill="white"/>
<path d="M122.485 9.24257V15.3484C122.485 15.6241 122.708 15.8475 122.984 15.8475H146.03C146.306 15.8475 146.529 16.071 146.529 16.3466V24.0919C146.529 24.3675 146.306 24.591 146.03 24.591H122.984C122.708 24.591 122.485 24.8144 122.485 25.0901V31.1959C122.485 31.4716 122.708 31.6951 122.984 31.6951H146.03C146.306 31.6951 146.529 31.9185 146.529 32.1942V39.9394C146.529 40.2151 146.306 40.4385 146.03 40.4385H114.241C113.965 40.4385 113.741 40.2151 113.741 39.9394V0.499106C113.741 0.223444 113.965 0 114.241 0H146.03C146.306 0 146.529 0.223444 146.529 0.499106V8.24436C146.529 8.52002 146.306 8.74346 146.03 8.74346H122.984C122.708 8.74346 122.485 8.96691 122.485 9.24257Z" fill="white"/>
<path d="M8.64996 49.5205C8.74468 49.62 8.79204 49.739 8.79204 49.8775C8.79204 50.0269 8.74468 50.1507 8.64996 50.2503C8.55524 50.3499 8.41923 50.3997 8.24071 50.3997H4.9182L4.93277 58.2955C4.93277 58.4643 4.87327 58.5991 4.75426 58.6975C4.63525 58.797 4.50531 58.8468 4.36687 58.8468C4.22844 58.8468 4.10336 58.7995 3.99406 58.7047C3.88477 58.61 3.83012 58.474 3.83012 58.2955V50.3997H0.522179C0.363097 50.3997 0.236802 50.3474 0.142081 50.243C0.0473604 50.1386 0 50.0171 0 49.8775C0 49.7378 0.0473604 49.6188 0.142081 49.5205C0.236802 49.4209 0.363097 49.3711 0.522179 49.3711H8.2395C8.41801 49.3711 8.55524 49.4209 8.64874 49.5205H8.64996Z" fill="white"/>
<path d="M20.1742 57.8636C20.3332 57.8636 20.4571 57.9158 20.547 58.0202C20.6368 58.1246 20.6806 58.2461 20.6806 58.3857C20.6806 58.5145 20.6356 58.6237 20.547 58.7136C20.4583 58.8035 20.3332 58.8472 20.1742 58.8472H13.9019C13.7028 58.8472 13.5388 58.7828 13.4101 58.6541C13.2814 58.5254 13.217 58.3712 13.217 58.1926V50.0127C13.217 49.8341 13.2814 49.6823 13.4101 49.5585C13.5388 49.4346 13.7028 49.3727 13.9019 49.3727H20.1887C20.3381 49.3727 20.4523 49.4176 20.5312 49.5063C20.6101 49.5961 20.6502 49.7054 20.6502 49.8341C20.6502 49.9629 20.6077 50.0782 20.5239 50.1766C20.4389 50.2762 20.3223 50.326 20.1742 50.326H14.2893V53.6776H19.8912C20.0297 53.6776 20.1414 53.725 20.2264 53.8197C20.3102 53.9144 20.3527 54.031 20.3527 54.1694C20.3527 54.2884 20.3126 54.3953 20.2337 54.49C20.1535 54.5848 20.0394 54.6321 19.8912 54.6321H14.2893V57.8648H20.1742V57.8636Z" fill="white"/>
<path d="M33.7609 50.6974C33.8508 50.797 33.8945 50.9063 33.8945 51.0253C33.8945 51.154 33.8374 51.2706 33.7233 51.375C33.6091 51.4794 33.4828 51.5317 33.3432 51.5317C33.2242 51.5317 33.11 51.477 33.0007 51.3677C32.6133 50.9609 32.1968 50.6707 31.7487 50.4958C31.3018 50.3221 30.8149 50.2347 30.289 50.2347C29.6831 50.2347 29.0868 50.3513 28.5015 50.5844C27.9149 50.8176 27.4243 51.2147 27.026 51.7757C26.6289 52.3368 26.4298 53.0739 26.4298 53.9883C26.4298 54.723 26.601 55.3934 26.9435 55.9993C27.2859 56.6053 27.7449 57.085 28.3218 57.4371C28.8974 57.7893 29.524 57.9666 30.1992 57.9666C30.7748 57.9666 31.3188 57.8427 31.8301 57.5938C32.3413 57.3461 32.7712 56.9975 33.1185 56.5506C33.2084 56.4219 33.3323 56.3576 33.4913 56.3576C33.6298 56.3576 33.7597 56.4074 33.8787 56.5069C33.9977 56.6065 34.0572 56.7255 34.0572 56.864C34.0572 56.9635 34.0269 57.057 33.9674 57.1469C33.5703 57.7128 33.0189 58.1621 32.3134 58.4949C31.6078 58.8276 30.8926 58.994 30.1676 58.994C29.3236 58.994 28.5331 58.7778 27.7984 58.3455C27.0637 57.9132 26.4747 57.3121 26.0327 56.5434C25.5906 55.7734 25.3696 54.9173 25.3696 53.9738C25.3696 52.9112 25.6246 52.0223 26.1371 51.307C26.6484 50.5917 27.2786 50.0659 28.0291 49.7283C28.7784 49.3907 29.5216 49.2219 30.2563 49.2219C31.6661 49.2219 32.8331 49.7137 33.7573 50.6974H33.7609Z" fill="white"/>
<path d="M45.9485 53.6473V49.9082C45.9485 49.7394 46.0031 49.6083 46.1124 49.5135C46.2217 49.4188 46.3504 49.3727 46.4998 49.3727C46.6492 49.3727 46.7755 49.42 46.8799 49.5135C46.9843 49.6083 47.0366 49.7394 47.0366 49.9082V58.2813C47.0366 58.4598 46.9819 58.5995 46.8726 58.699C46.7633 58.7986 46.6346 58.8484 46.4852 58.8484C46.3359 58.8484 46.2096 58.7986 46.1051 58.699C46.0007 58.5995 45.9485 58.461 45.9485 58.2813V54.586H40.4656V58.2959C40.4656 58.4744 40.4158 58.6116 40.3162 58.7051C40.2167 58.7998 40.0976 58.8472 39.9592 58.8472C39.8098 58.8472 39.6787 58.7974 39.5645 58.6978C39.4504 58.5982 39.3933 58.4647 39.3933 58.2959V49.9082C39.3933 49.7394 39.4455 49.6083 39.55 49.5135C39.6544 49.4188 39.7758 49.3727 39.9155 49.3727C40.0649 49.3727 40.1936 49.4225 40.3029 49.522C40.4122 49.6216 40.4668 49.7503 40.4668 49.9094V53.6485H45.9497L45.9485 53.6473Z" fill="white"/>
<path d="M59.6331 49.4988C59.7472 49.415 59.8833 49.3725 60.0423 49.3725C60.1917 49.3725 60.3204 49.415 60.4297 49.4988C60.539 49.5838 60.5937 49.7004 60.5937 49.8486V58.2071C60.5937 58.4062 60.5269 58.5629 60.3921 58.6758C60.2585 58.79 60.097 58.8471 59.9075 58.8471C59.7788 58.8471 59.6537 58.8167 59.5347 58.7572C59.4157 58.6977 59.321 58.6127 59.2518 58.5034L53.679 51.114L53.7981 53.1699V58.2945C53.7981 58.473 53.7434 58.6103 53.6341 58.7038C53.5248 58.7985 53.39 58.8458 53.2322 58.8458C53.0743 58.8458 52.9395 58.7985 52.8302 58.7038C52.7209 58.609 52.6663 58.473 52.6663 58.2945V50.0259C52.6663 49.817 52.7233 49.6555 52.8375 49.5413C52.9516 49.4272 53.0925 49.3701 53.2625 49.3701C53.3815 49.3701 53.4957 49.4005 53.605 49.46C53.7143 49.5195 53.8029 49.6045 53.8733 49.7138L59.6088 57.2526L59.4594 55.0024V49.8474C59.4594 49.698 59.5165 49.5814 59.6307 49.4976L59.6331 49.4988Z" fill="white"/>
<path d="M67.9756 58.3857C67.2458 57.9789 66.6666 57.3923 66.2403 56.6273C65.8129 55.8622 65.5991 54.9685 65.5991 53.946C65.5991 52.9235 65.842 52.026 66.329 51.3168C66.8159 50.6064 67.4219 50.0806 68.1469 49.7382C68.8718 49.3957 69.592 49.2245 70.3072 49.2245C71.0225 49.2245 71.7718 49.3957 72.5271 49.7382C73.2812 50.0806 73.9151 50.6077 74.4264 51.3168C74.9376 52.0273 75.1939 52.904 75.1939 53.946C75.1939 54.9879 74.9753 55.8331 74.5381 56.5981C74.1009 57.3632 73.5192 57.9534 72.7955 58.3711C72.0705 58.7889 71.2812 58.9965 70.4262 58.9965C69.5228 58.9965 68.7055 58.7937 67.9756 58.3857ZM67.2009 56.0917C67.5239 56.6977 67.9684 57.164 68.5343 57.4919C69.1001 57.8198 69.7316 57.9837 70.4262 57.9837C71.1209 57.9837 71.7171 57.8222 72.2733 57.4992C72.8295 57.1762 73.2715 56.7147 73.5994 56.1136C73.9273 55.5125 74.0912 54.8045 74.0912 53.9909C74.0912 53.1773 73.8945 52.4389 73.5022 51.8682C73.11 51.2974 72.6255 50.8797 72.0499 50.6162C71.4742 50.3526 70.9023 50.2215 70.3364 50.2215C69.7705 50.2215 69.2119 50.3478 68.6606 50.6016C68.1092 50.8554 67.6478 51.2646 67.2749 51.8305C66.9021 52.3964 66.7163 53.1165 66.7163 53.9909C66.7163 54.7851 66.8779 55.4858 67.2009 56.0917Z" fill="white"/>
<path d="M80.4243 58.2955V49.8921C80.4243 49.7233 80.479 49.5945 80.5883 49.5047C80.6975 49.4148 80.8263 49.3711 80.9756 49.3711C81.125 49.3711 81.2537 49.416 81.363 49.5047C81.4723 49.5945 81.527 49.7233 81.527 49.8921V57.8632H87.0997C87.2782 57.8632 87.4179 57.9105 87.5162 58.004C87.6158 58.0988 87.6656 58.2153 87.6656 58.3538C87.6656 58.4825 87.6158 58.5979 87.5162 58.6962C87.4167 58.7946 87.2782 58.8456 87.0997 58.8456H80.9914C80.6138 58.8456 80.4255 58.6622 80.4255 58.2943L80.4243 58.2955Z" fill="white"/>
<path d="M93.3331 58.3857C92.6032 57.9789 92.024 57.3923 91.5977 56.6273C91.1703 55.8622 90.9565 54.9685 90.9565 53.946C90.9565 52.9235 91.1994 52.026 91.6864 51.3168C92.1733 50.6064 92.7793 50.0806 93.5043 49.7382C94.2293 49.3957 94.9494 49.2245 95.6647 49.2245C96.3799 49.2245 97.1292 49.3957 97.8845 49.7382C98.6386 50.0806 99.2725 50.6077 99.7838 51.3168C100.295 52.0273 100.551 52.904 100.551 53.946C100.551 54.9879 100.333 55.8331 99.8955 56.5981C99.4583 57.3632 98.8767 57.9534 98.1529 58.3711C97.4279 58.7889 96.6386 58.9965 95.7837 58.9965C94.8802 58.9965 94.0629 58.7937 93.3331 58.3857ZM92.5583 56.0917C92.8813 56.6977 93.3258 57.164 93.8917 57.4919C94.4576 57.8198 95.089 57.9837 95.7837 57.9837C96.4783 57.9837 97.0745 57.8222 97.6307 57.4992C98.1869 57.1762 98.6289 56.7147 98.9568 56.1136C99.2847 55.5125 99.4486 54.8045 99.4486 53.9909C99.4486 53.1773 99.2519 52.4389 98.8597 51.8682C98.4674 51.2974 97.9829 50.8797 97.4073 50.6162C96.8317 50.3526 96.2597 50.2215 95.6938 50.2215C95.1279 50.2215 94.5693 50.3478 94.018 50.6016C93.4666 50.8554 93.0052 51.2646 92.6324 51.8305C92.2596 52.3964 92.0738 53.1165 92.0738 53.9909C92.0738 54.7851 92.2353 55.4858 92.5583 56.0917Z" fill="white"/>
<path d="M113.677 57.2086C113.25 57.7745 112.696 58.2141 112.016 58.5274C111.336 58.8407 110.623 58.9961 109.877 58.9961C109.033 58.9961 108.246 58.7776 107.515 58.3404C106.786 57.9032 106.206 57.3045 105.78 56.5456C105.353 55.7854 105.15 54.9487 105.169 54.0354C105.169 53.0227 105.419 52.1532 105.922 51.4282C106.424 50.7032 107.042 50.1543 107.776 49.7815C108.511 49.4087 109.226 49.2229 109.922 49.2229C110.618 49.2229 111.263 49.3419 111.89 49.5799C112.515 49.8179 113.026 50.1665 113.425 50.6231C113.514 50.7226 113.558 50.8368 113.558 50.9655C113.558 51.1149 113.503 51.2436 113.394 51.3529C113.285 51.4622 113.161 51.5168 113.021 51.5168C112.893 51.5168 112.768 51.4525 112.649 51.3238C112.34 50.9655 111.958 50.6911 111.501 50.4968C111.044 50.3025 110.577 50.2065 110.101 50.2065C109.535 50.2065 108.951 50.3583 108.35 50.6607C107.749 50.9643 107.247 51.4112 106.845 52.0014C106.443 52.5928 106.242 53.285 106.242 54.0792C106.251 54.775 106.427 55.4198 106.771 56.0161C107.113 56.6123 107.568 57.0884 108.135 57.4466C108.701 57.8049 109.302 57.9834 109.937 57.9834C110.493 57.9834 111.03 57.8668 111.546 57.6336C112.062 57.4005 112.48 57.0702 112.798 56.6427V54.6608H110.117C109.958 54.6608 109.836 54.6135 109.751 54.5188C109.666 54.424 109.625 54.3123 109.625 54.1836C109.625 54.0452 109.667 53.9249 109.751 53.8266C109.835 53.727 109.958 53.6772 110.117 53.6772H113.275C113.653 53.6772 113.841 53.8606 113.841 54.2285V56.7168C113.841 56.8953 113.786 57.0592 113.677 57.2086Z" fill="white"/>
<path d="M119.489 49.5135C119.598 49.4188 119.727 49.3727 119.876 49.3727C120.035 49.3727 120.169 49.42 120.278 49.5135C120.387 49.6083 120.442 49.7443 120.442 49.9228V58.3262C120.442 58.4853 120.385 58.6116 120.271 58.7063C120.157 58.801 120.025 58.8484 119.876 58.8484C119.727 58.8484 119.598 58.8035 119.489 58.7148C119.379 58.625 119.325 58.4962 119.325 58.3274V49.924C119.325 49.7455 119.379 49.6083 119.489 49.5148V49.5135Z" fill="white"/>
<path d="M132.807 57.8636C132.967 57.8636 133.09 57.9158 133.18 58.0202C133.27 58.1246 133.314 58.2461 133.314 58.3857C133.314 58.5145 133.269 58.6237 133.18 58.7136C133.092 58.8035 132.967 58.8472 132.807 58.8472H126.535C126.336 58.8472 126.172 58.7828 126.043 58.6541C125.915 58.5254 125.85 58.3712 125.85 58.1926V50.0127C125.85 49.8341 125.915 49.6823 126.043 49.5585C126.172 49.4346 126.336 49.3727 126.535 49.3727H132.822C132.971 49.3727 133.086 49.4176 133.165 49.5063C133.243 49.5961 133.284 49.7054 133.284 49.8341C133.284 49.9629 133.241 50.0782 133.157 50.1766C133.072 50.2762 132.956 50.326 132.807 50.326H126.923V53.6776H132.525C132.663 53.6776 132.775 53.725 132.86 53.8197C132.943 53.9144 132.986 54.031 132.986 54.1694C132.986 54.2884 132.946 54.3953 132.867 54.49C132.787 54.5848 132.673 54.6321 132.525 54.6321H126.923V57.8648H132.807V57.8636Z" fill="white"/>
<path d="M137.694 56.6272C137.694 56.4778 137.756 56.3588 137.88 56.2701C138.004 56.1803 138.151 56.1366 138.32 56.1366C138.439 56.1366 138.546 56.1669 138.64 56.2264C138.735 56.2859 138.792 56.3758 138.812 56.4948C139.109 57.4481 140.187 57.9253 142.044 57.9253C142.878 57.9253 143.625 57.7893 144.286 57.5161C144.947 57.2429 145.277 56.7741 145.277 56.1086C145.277 55.7018 145.135 55.3958 144.852 55.193C144.569 54.989 144.222 54.8505 143.809 54.7753C143.396 54.7012 142.818 54.6344 142.073 54.5737C141.159 54.5045 140.419 54.4073 139.853 54.2834C139.288 54.1596 138.805 53.9179 138.408 53.5609C138.011 53.2039 137.812 52.6817 137.812 51.9968C137.812 51.3811 138.015 50.865 138.423 50.4472C138.83 50.0307 139.347 49.7223 139.972 49.5231C140.598 49.3252 141.239 49.2256 141.895 49.2256C144.169 49.2256 145.55 49.8911 146.037 51.222C146.056 51.3022 146.067 51.3556 146.067 51.386C146.067 51.5256 146.008 51.6373 145.889 51.7211C145.77 51.8061 145.635 51.8474 145.487 51.8474C145.259 51.8474 145.104 51.7575 145.025 51.579C144.826 51.0824 144.441 50.7496 143.871 50.5808C143.3 50.412 142.647 50.327 141.912 50.327C141.505 50.327 141.078 50.3792 140.631 50.4837C140.184 50.5881 139.796 50.7642 139.469 51.0131C139.141 51.2621 138.977 51.5936 138.977 52.0114C138.977 52.4291 139.115 52.7266 139.393 52.9355C139.671 53.1444 140.024 53.2877 140.451 53.3678C140.878 53.448 141.459 53.5172 142.194 53.5767C143.166 53.6665 143.919 53.7625 144.451 53.8669C144.982 53.9713 145.444 54.1948 145.837 54.5372C146.229 54.8797 146.426 55.3994 146.426 56.0941C146.426 56.7887 146.202 57.3704 145.755 57.8075C145.308 58.2447 144.752 58.5519 144.087 58.7317C143.421 58.9102 142.741 59.0001 142.045 59.0001C141.082 59.0001 140.173 58.8288 139.319 58.4864C138.465 58.1439 137.929 57.5707 137.71 56.7656C137.7 56.7353 137.696 56.6915 137.696 56.632L137.694 56.6272Z" fill="white"/>
</svg>
